<svg width="641" height="444" viewBox="0 0 641 444" fill="none" xmlns="http://www.w3.org/2000/svg">
<g clip-path="url(#clip0_303_83)">
<path opacity="0.4" d="M540.999 170.7C549.481 170.7 556.358 164.363 556.358 156.546C556.358 148.728 549.481 142.391 540.999 142.391C532.516 142.391 525.64 148.728 525.64 156.546C525.64 164.363 532.516 170.7 540.999 170.7Z" fill="#0228E2"/>
<path opacity="0.4" d="M217.164 92.8258C229.256 92.8258 239.059 83.7917 239.059 72.6475C239.059 61.5034 229.256 52.4692 217.164 52.4692C205.071 52.4692 195.269 61.5034 195.269 72.6475C195.269 83.7917 205.071 92.8258 217.164 92.8258Z" fill="#0228E2"/>
<path opacity="0.4" d="M176.641 96.4397C185.124 96.4397 192.001 90.1023 192.001 82.2848C192.001 74.4672 185.124 68.1299 176.641 68.1299C168.159 68.1299 161.282 74.4672 161.282 82.2848C161.282 90.1023 168.159 96.4397 176.641 96.4397Z" fill="#0228E2"/>
<path d="M553.863 314.834C541.727 327.079 541.286 344.916 541.286 344.916C541.286 344.916 560.522 342.9 572.658 330.655C584.794 318.41 585.234 300.573 585.234 300.573C585.234 300.573 565.999 302.589 553.863 314.834Z" fill="#3F3D56"/>
<path d="M560.718 318.358C557.046 334.592 541.609 345.36 541.609 345.36C541.609 345.36 532.126 329.805 535.798 313.57C539.471 297.335 554.907 286.568 554.907 286.568C554.907 286.568 564.39 302.123 560.718 318.358Z" fill="#0228E2"/>
<path d="M544.957 150.834V344.37L474.956 397.663H116.837V194.778L221.33 150.834H544.957Z" fill="#3F3D56"/>
<path opacity="0.1" d="M544.957 150.834V151.61L519.827 167.112L474.956 194.778H116.837L221.33 150.834H544.957Z" fill="black"/>
<path opacity="0.1" d="M544.957 150.834V344.37L474.956 397.663L475.463 194.31L519.827 167.112L544.551 150.834H544.957Z" fill="black"/>
<path d="M450.608 177.481H232.49L248.722 169.066H457.71L450.608 177.481Z" fill="#2F2E41"/>
<path d="M638.858 408.19C638.858 408.19 643.087 424.486 639.243 425.195C635.399 425.903 616.563 425.675 611.95 426.383C607.337 427.092 597.727 425.903 597.727 422.715C597.727 419.527 607.721 417.401 607.721 417.401C607.721 417.401 621.944 410.316 622.329 409.961C622.713 409.607 638.858 408.19 638.858 408.19Z" fill="#2F2E41"/>
<path d="M635.399 312.183C635.399 312.183 634.246 324.229 634.246 325.291C634.246 326.354 635.399 343.005 634.246 343.713C633.092 344.422 635.015 349.382 635.015 351.153C635.015 352.924 641.165 382.328 639.627 393.665C638.09 405.002 641.934 403.939 640.781 405.002C639.627 406.064 639.627 406.064 639.627 408.19C639.627 410.316 627.326 412.087 627.326 412.087L613.872 333.794L620.791 310.412L635.399 312.183Z" fill="#575A89"/>
<path opacity="0.1" d="M635.399 312.183C635.399 312.183 634.246 324.229 634.246 325.291C634.246 326.354 635.399 343.005 634.246 343.713C633.092 344.422 635.015 349.382 635.015 351.153C635.015 352.924 641.165 382.328 639.627 393.665C638.09 405.002 641.934 403.939 640.781 405.002C639.627 406.064 639.627 406.064 639.627 408.19C639.627 410.316 627.326 412.087 627.326 412.087L613.872 333.794L620.791 310.412L635.399 312.183Z" fill="black"/>
<path d="M633.477 413.15C633.477 413.15 637.321 425.903 633.477 426.612C629.633 427.32 610.797 425.8 606.184 426.509C601.571 427.217 591.961 427.32 591.961 424.132C591.961 420.943 601.956 418.818 601.956 418.818C601.956 418.818 616.179 411.732 616.563 411.378C616.947 411.024 633.477 413.15 633.477 413.15Z" fill="#2F2E41"/>
<path d="M638.859 298.013C638.859 298.013 643.471 308.286 638.09 313.6C632.708 318.914 626.557 329.543 626.557 330.251C626.557 330.96 637.321 401.459 635.783 406.064C634.246 410.67 634.63 413.504 635.014 414.212C635.399 414.921 631.17 418.818 626.557 418.818C621.945 418.818 615.025 415.63 614.256 412.795C613.488 409.961 615.41 385.517 615.025 380.911C614.641 376.306 612.719 369.575 611.95 368.158C611.181 366.741 606.953 365.324 606.184 361.072C605.415 356.821 599.265 302.618 601.187 300.847C603.109 299.075 638.859 298.013 638.859 298.013Z" fill="#575A89"/>
<path d="M609.644 216.531C616.862 216.531 622.714 211.138 622.714 204.486C622.714 197.834 616.862 192.441 609.644 192.441C602.426 192.441 596.574 197.834 596.574 204.486C596.574 211.138 602.426 216.531 609.644 216.531Z" fill="#FFB9B9"/>
<path d="M617.716 210.508C617.716 210.508 615.025 223.616 616.947 225.033C618.869 226.451 602.34 228.576 602.34 228.576C602.34 228.576 600.418 211.217 600.033 209.446C599.649 207.674 617.716 210.508 617.716 210.508Z" fill="#FFB9B9"/>
<path d="M600.033 227.513C600.033 227.513 604.646 215.114 623.482 218.657C623.482 218.657 626.942 219.719 625.788 220.782C624.635 221.845 623.482 221.845 625.02 222.908C626.557 223.971 628.479 222.908 627.326 223.971C626.173 225.033 637.705 231.41 636.936 243.455C636.168 255.5 639.627 272.505 636.936 275.339C634.245 278.174 638.858 290.573 638.09 293.053C637.321 295.533 642.702 298.721 640.396 299.784C638.09 300.847 596.573 307.223 595.42 299.784C594.267 292.344 595.036 297.658 593.883 295.887C592.729 294.116 592.345 290.927 593.114 287.03C593.883 283.133 595.805 273.568 595.036 270.025C594.267 266.483 595.036 236.724 597.342 233.182C599.649 229.639 600.033 227.513 600.033 227.513Z" fill="#0228E2"/>
<path d="M608.106 313.955C608.106 313.955 613.872 334.148 606.568 334.148C599.265 334.148 599.649 313.246 599.649 313.246L608.106 313.955Z" fill="#FFB9B9"/>
<path d="M603.877 204.486C603.877 205.513 605.491 206.165 607.994 206.314H607.998C609.059 206.37 610.123 206.351 611.181 206.257C612.78 206.123 613.441 207.508 613.714 209.336C614.16 212.351 613.537 216.577 614.256 217.24C615.248 218.154 622.478 217.236 624.739 215.164C625.091 214.873 625.325 214.481 625.404 214.051C625.641 212.786 626.318 211.626 627.334 210.746C628.667 209.403 630.566 207.915 632.708 205.549C636.552 201.298 632.708 200.943 631.554 197.755C630.401 194.566 628.479 193.504 628.479 191.378C628.479 189.252 619.638 187.481 612.334 187.835C605.03 188.19 606.568 196.692 606.568 196.692C606.568 196.692 606.133 197.719 605.615 199.044C604.913 200.707 604.342 202.414 603.908 204.153C603.89 204.263 603.879 204.374 603.877 204.486Z" fill="#2F2E41"/>
<path opacity="0.1" d="M605.415 232.828C605.415 232.828 618.485 232.119 619.638 249.832C620.791 267.546 620.407 284.196 620.407 284.551C620.407 284.905 615.025 318.56 610.028 318.56C605.031 318.56 601.186 317.852 600.033 316.081C598.88 314.309 603.109 288.802 603.109 288.802C603.109 288.802 605.031 261.878 601.955 253.375C598.88 244.873 598.496 233.89 605.415 232.828Z" fill="black"/>
<path d="M603.493 231.056C603.493 231.056 616.563 230.348 617.716 248.061C618.869 265.774 618.485 282.425 618.485 282.779C618.485 283.133 613.103 316.789 608.106 316.789C603.109 316.789 599.265 316.08 598.111 314.309C596.958 312.538 601.187 287.03 601.187 287.03C601.187 287.03 603.109 260.106 600.033 251.604C596.958 243.101 596.574 232.119 603.493 231.056Z" fill="#0228E2"/>
<path d="M386.766 57.8856C386.766 57.8856 381.07 43.0125 376.957 47.6786C372.843 52.3447 383.286 60.2186 383.286 60.2186L386.766 57.8856Z" fill="#A0616A"/>
<path d="M413.664 43.3042L410.237 44.4745C410.237 44.4745 408.601 51.1782 409.233 52.3447C409.866 53.5112 410.183 52.6363 409.233 54.9694C408.284 57.3024 405.436 63.4266 405.12 64.3015C404.803 65.1763 386.766 58.7605 386.766 55.5526C386.766 55.5526 382.969 59.6354 381.07 60.5103C381.07 60.5103 401.955 74.5085 404.803 76.2582C407.651 78.008 409.233 77.1331 411.765 75.0917C414.296 73.0503 425.055 56.1359 425.055 56.1359L413.664 43.3042Z" fill="#575A89"/>
<path d="M404.487 146.833C404.487 146.833 404.803 150.04 405.436 150.332C406.069 150.624 410.815 157.914 405.436 159.373C400.056 160.831 396.892 160.247 395.626 160.831C394.361 161.414 372.21 162.58 371.893 159.373C371.577 156.165 382.652 155.581 382.652 155.581C382.652 155.581 392.778 149.457 394.361 146.249C395.943 143.041 404.487 146.833 404.487 146.833Z" fill="#2F2E41"/>
<path d="M468.724 152.665C468.724 152.665 476.318 164.622 474.42 166.08C472.521 167.538 454.031 172.852 451.32 173.079C447.839 173.371 445.307 170.746 448.155 169.288C451.003 167.83 457.016 161.705 457.016 159.664V154.415L468.724 152.665Z" fill="#2F2E41"/>
<path d="M476.002 74.5083C476.002 74.5083 482.647 82.0907 472.205 94.339L454.801 114.753C454.801 114.753 465.56 130.501 465.876 138.667C466.192 146.832 468.407 145.082 469.04 148.582C469.673 152.082 472.521 150.332 470.306 152.956C468.091 155.581 459.864 157.914 457.332 155.873C456.461 155.139 455.781 154.233 455.343 153.223C454.905 152.213 454.719 151.125 454.801 150.04C454.801 148.874 450.37 142.166 450.054 140.125C449.738 138.083 438.029 121.461 438.029 121.461C438.029 121.461 434.232 111.545 438.662 106.004C443.092 100.463 446.02 92.6046 446.02 92.6046C446.02 92.6046 432.966 107.171 423.789 110.67C423.789 110.67 420.309 111.254 420.941 112.712C421.574 114.17 420.941 115.045 419.992 116.503C419.043 117.961 412.398 134.875 410.183 139.25C407.968 143.624 408.917 146.249 406.385 147.707C403.854 149.165 392.462 147.999 392.462 146.541C392.462 145.082 394.044 141.291 394.993 139.25C395.943 137.208 403.537 113.587 402.904 109.504C402.272 105.421 403.221 99.88 407.967 97.547C412.714 95.2139 436.764 76.2581 438.029 76.2581C439.295 76.2581 476.002 74.5083 476.002 74.5083Z" fill="#2F2E41"/>
<path d="M412.398 28.7229C419.738 28.7229 425.688 23.2391 425.688 16.4745C425.688 9.70987 419.738 4.22607 412.398 4.22607C405.058 4.22607 399.107 9.70987 399.107 16.4745C399.107 23.2391 405.058 28.7229 412.398 28.7229Z" fill="#A0616A"/>
<path d="M423.157 17.6411C423.157 17.6411 427.271 24.3486 432.334 25.2235C437.397 26.0984 419.043 39.5133 419.043 39.5133C419.043 39.5133 414.613 26.6816 410.816 26.0984C407.019 25.5151 423.157 17.6411 423.157 17.6411Z" fill="#A0616A"/>
<path d="M410.183 45.0542C410.183 48.8454 422.524 59.6356 422.524 59.6356L434.232 68.6761C434.232 68.6761 434.548 71.884 435.814 72.1756C437.08 72.4673 438.662 72.4673 437.396 74.217C436.131 75.9668 432.966 79.758 435.814 80.3412C436.673 80.4616 437.538 80.5375 438.406 80.5687C439.165 80.6095 440.058 80.6475 441.061 80.6824C443.402 80.7583 446.333 80.8078 449.507 80.7874C450.408 80.7845 451.326 80.7748 452.26 80.7583C464.224 80.5396 478.084 79.271 476.951 75.0919C475.053 68.0928 476.319 65.7598 472.205 61.9686C468.091 58.1775 461.446 45.0542 461.446 45.0542C461.446 45.0542 448.155 24.3485 437.08 24.3485L434.779 23.7915C433.711 23.532 432.58 23.5889 431.548 23.9543C430.516 24.3196 429.635 24.9748 429.03 25.8271C426.808 28.9446 423.305 33.6282 421.258 35.1388C418.094 37.4718 417.6 35.7979 417.6 35.7979C417.6 35.7979 410.183 41.263 410.183 45.0542Z" fill="#575A89"/>
<path d="M438.346 89.3818C438.346 89.3818 429.169 102.505 434.865 104.838C440.561 107.171 443.725 91.1316 443.725 91.1316L438.346 89.3818Z" fill="#A0616A"/>
<path d="M421.086 15.0909C420.576 15.0316 420.415 14.4385 420.329 13.9713C419.869 11.4696 417.846 9.09739 415.128 8.69355C414.09 8.56618 413.033 8.64464 412.03 8.92369C410.592 9.28719 409.243 9.89925 408.054 10.7273C407.472 11.2175 406.799 11.607 406.067 11.8771C405.568 12.012 403.451 12.8796 402.956 13.0264C401.868 13.3492 400.968 14.3985 399.848 14.1907C398.776 13.992 398.369 12.7992 398.197 11.8042C397.804 9.53743 399.212 6.1552 400.612 4.25651C401.674 2.81567 403.471 1.98645 405.269 1.44699C407.374 0.857989 409.537 0.461829 411.727 0.264257C414.684 -0.0575001 417.745 -0.228209 420.578 0.613917C423.411 1.45604 425.991 3.51607 426.52 6.21578C426.63 6.77815 426.651 7.35417 426.786 7.91192C427.115 9.27256 428.092 10.4163 428.662 11.7076C429.073 12.656 429.264 13.6733 429.222 14.6939C429.18 15.7145 428.907 16.7157 428.42 17.6329C427.631 19.0953 426.259 20.5006 426.555 22.1109L424.113 20.3364C423.76 20.1516 423.486 19.8609 423.338 19.5127C423.19 19.1646 423.175 18.78 423.298 18.4234L423.653 15.6055C423.776 15.0949 423.72 14.5617 423.494 14.0819C422.409 12.3347 421.937 15.1898 421.086 15.0909Z" fill="#2F2E41"/>
<path opacity="0.1" d="M444.041 69.2593L441.061 80.6824C444.067 80.7815 448.044 80.834 452.259 80.7582C453.323 77.8186 454.338 74.7536 455.117 71.884C457.965 61.3853 453.218 45.3457 450.687 37.7634C448.155 30.1811 441.826 28.1396 441.826 28.1396C439.232 28.9806 436.781 30.159 434.548 31.6392C430.435 34.2639 444.041 69.2593 444.041 69.2593Z" fill="black"/>
<path opacity="0.1" d="M441.51 68.6759L438.406 80.5685C439.165 80.6094 440.058 80.6473 441.061 80.6823C443.403 80.7581 446.333 80.8077 449.507 80.7873C450.649 77.6639 451.753 74.3685 452.586 71.3006C455.434 60.802 450.687 44.7624 448.156 37.18C445.624 29.5977 440.086 37.9091 440.086 37.9091C440.086 37.9091 442.301 32.9514 438.188 35.576C434.074 38.2007 441.51 68.6759 441.51 68.6759Z" fill="black"/>
<path d="M440.561 27.5562C440.561 27.5562 446.89 29.5975 449.421 37.1799C451.953 44.7622 456.699 60.8018 453.851 71.3004C451.003 81.7991 444.991 94.9224 444.991 94.9224C444.991 94.9224 438.979 90.8396 436.763 91.7145L442.776 68.6758C442.776 68.6758 429.169 33.6804 433.283 31.0557C435.515 29.5755 437.966 28.3971 440.561 27.5562Z" fill="#575A89"/>
<path d="M445.278 173.835L357.729 5.70068L211.341 70.4414L265.179 173.835H445.278Z" fill="#F2F2F2"/>
<path d="M328.103 71.6969L250.351 106.083L252.666 110.531L330.418 76.1445L328.103 71.6969Z" fill="#3F3D56"/>
<path d="M348.689 111.231L270.937 145.617L273.252 150.065L351.004 115.679L348.689 111.231Z" fill="#3F3D56"/>
<path d="M362.829 48.4354L343.525 56.9727L352.789 74.763L372.093 66.2258L362.829 48.4354Z" fill="#3F3D56"/>
<path d="M383.415 87.9696L364.111 96.5068L373.375 114.297L392.679 105.76L383.415 87.9696Z" fill="#3F3D56"/>
<path d="M364.16 36.1128L356.21 56.9588L345.493 53.4873L344.026 57.3327L358.902 62.1506L368.332 37.4643L364.16 36.1128Z" fill="#57B894"/>
<path d="M384.745 75.647L376.795 96.493L366.079 93.0221L364.612 96.8669L379.487 101.685L388.918 76.9985L384.745 75.647Z" fill="#57B894"/>
<path d="M8.44914 367.347L48.0029 359.56L39.5539 323.108L0.00013121 330.894L8.44914 367.347Z" fill="#F2F2F2"/>
<path d="M46.9023 313.368C46.9023 313.368 32.3741 322.932 37.2168 326.757C42.0596 330.583 51.745 315.281 51.745 315.281L46.9023 313.368Z" fill="#FFB9B9"/>
<path d="M114.009 328.032C114.009 328.032 111.242 359.911 110.55 364.374C109.858 368.837 109.167 409.004 107.783 413.467C106.399 417.93 105.016 428.769 105.016 428.769H96.7139C96.7139 428.769 97.4057 409.004 95.3302 401.353C93.2548 393.702 93.9466 372.663 93.9466 372.663C93.9466 372.663 89.7957 335.046 91.8712 329.945C93.9467 324.844 114.009 328.032 114.009 328.032Z" fill="#FFB9B9"/>
<path d="M102.94 426.856C102.94 426.856 106.399 428.769 106.399 430.044C106.399 431.319 105.707 434.507 106.399 435.782C107.091 437.058 111.934 442.158 109.166 443.433C106.399 444.709 93.9463 443.433 93.9463 443.433C93.9463 443.433 94.6381 434.507 95.3299 433.87C96.0217 433.232 94.6381 426.856 94.6381 426.856H102.94Z" fill="#2F2E41"/>
<path d="M61.1233 327.251C61.1233 327.251 60.2444 359.221 60.4241 363.726C60.6037 368.232 56.7168 408.244 57.5845 412.816C58.4522 417.388 58.5937 428.301 58.5937 428.301L66.8496 429.104C66.8496 429.104 68.4128 409.382 71.3482 401.974C74.2836 394.566 75.992 373.575 75.992 373.575C75.992 373.575 84.4044 336.568 82.9213 331.295C81.4383 326.021 61.1233 327.251 61.1233 327.251Z" fill="#FFB9B9"/>
<path d="M60.8762 426.6C60.8762 426.6 57.2183 428.168 57.0731 429.436C56.9278 430.704 57.2527 433.941 56.4195 435.142C55.5863 436.343 50.1894 440.947 52.7961 442.483C55.4029 444.019 67.9321 443.955 67.9321 443.955C67.9321 443.955 68.2607 435.012 67.6453 434.311C67.03 433.61 69.1321 427.403 69.1321 427.403L60.8762 426.6Z" fill="#2F2E41"/>
<path d="M104.324 280.214C104.324 280.214 109.858 280.851 111.934 291.69C114.009 302.529 121.619 329.945 115.393 331.857C109.167 333.77 90.4875 337.596 89.7957 336.321C89.1039 335.045 87.7203 331.857 87.7203 331.857C87.7203 331.857 89.7957 337.596 87.0285 337.596C84.2612 337.596 57.2802 333.77 57.9721 331.857C58.6639 329.945 60.0475 315.918 60.0475 315.918C60.0475 315.918 64.1984 292.328 68.3493 288.502C69.5506 287.439 70.4833 286.146 71.0811 284.713C71.6789 283.281 71.9272 281.745 71.8084 280.214H104.324Z" fill="#2F2E41"/>
<path d="M114.701 275.113C114.701 275.113 105.707 273.201 104.324 275.751C102.94 278.301 107.783 282.127 109.858 282.127C111.934 282.127 115.393 280.214 115.393 280.214L114.701 275.113Z" fill="#FFB9B9"/>
<path d="M96.0221 220.92C102.9 220.92 108.475 215.781 108.475 209.443C108.475 203.105 102.9 197.967 96.0221 197.967C89.1446 197.967 83.5693 203.105 83.5693 209.443C83.5693 215.781 89.1446 220.92 96.0221 220.92Z" fill="#FFB9B9"/>
<path d="M93.9462 217.732C93.9462 217.732 91.8708 226.658 93.2544 226.658C94.638 226.658 82.8771 232.396 82.8771 232.396L73.8835 231.121L71.1162 227.295C71.1162 227.295 85.6444 218.369 85.6444 213.269C85.6444 208.168 93.9462 217.732 93.9462 217.732Z" fill="#FFB9B9"/>
<path d="M87.7197 226.658C87.7197 226.658 89.7951 225.383 90.487 225.383H96.0215C96.7134 225.383 105.707 227.296 105.707 227.296L111.242 255.986C111.242 255.986 101.556 270.651 108.474 282.127C108.474 282.127 106.399 280.852 96.7134 281.489C87.0279 282.127 69.7324 284.04 69.0406 284.04C68.3488 284.04 68.3488 278.939 69.0406 277.664C69.7324 276.389 68.3488 277.026 68.3488 273.839C68.3488 270.651 66.2734 264.912 66.2734 264.912L56.5879 232.396C56.5879 232.396 69.0406 226.02 71.1161 226.658C73.1915 227.296 79.4179 229.208 80.8015 228.571C82.1852 227.933 87.7197 226.658 87.7197 226.658Z" fill="#0228E2"/>
<path d="M103.632 227.933L105.707 227.295C105.707 227.295 109.858 226.658 114.701 230.483C119.544 234.309 137.531 245.785 137.531 245.785C137.531 245.785 144.449 250.886 142.374 256.624C140.298 262.362 136.839 276.389 126.462 275.751C126.462 275.751 120.236 283.402 116.776 282.127C113.317 280.852 110.55 275.751 112.625 275.113C114.701 274.476 120.235 268.1 120.235 268.1L113.317 255.986H111.242L103.632 252.161L103.632 227.933Z" fill="#0228E2"/>
<path d="M62.1229 231.758L56.5884 232.396C56.5884 232.396 51.7457 234.309 52.4375 242.597C53.1293 250.886 48.2866 288.503 50.362 292.966C50.362 292.966 43.4439 314.643 44.8275 315.281C46.2111 315.918 54.513 319.744 53.8211 317.193C53.1293 314.643 61.4311 296.791 61.4311 296.791C61.4311 296.791 71.1166 287.227 66.9657 273.838V262.999L62.1229 231.758Z" fill="#0228E2"/>
<path d="M106.386 220.539L97.5914 222.305L96.4612 218.314L96.8957 222.444L82.7078 225.293L82.0838 223.09L82.3237 225.37L73.2364 227.194L71.2924 209.997C69.2939 202.94 76.5879 195.418 84.2453 193.577L87.6423 192.76C93.2663 191.407 103.489 192.637 104.957 197.82C102.388 206.856 98.0085 216.763 106.386 220.539Z" fill="#2F2E41"/>
</g>
<defs>
<clipPath id="clip0_303_83">
<rect width="641" height="444" fill="white"/>
</clipPath>
</defs>
</svg>
